<svg width="640" height="640" viewBox="0 0 640 640" fill="none" xmlns="http://www.w3.org/2000/svg">
<path d="M320 72C183.042 72 72 183.042 72 320C72 456.958 183.042 568 320 568C456.958 568 568 456.958 568 320C568 183.042 456.958 72 320 72ZM215.881 230.72C231.464 230.72 243.513 242.066 244.918 255.52C246.344 267.569 241.384 278.191 227.93 284.577C220.841 288.111 218.01 288.132 216.584 286.003C215.881 284.577 216.584 283.172 218.01 281.746C230.761 271.123 230.761 262.609 229.335 250.581C228.633 242.769 222.97 237.809 217.287 237.809C192.487 237.809 157.064 293.071 162.024 333.475C164.153 349.057 173.37 367.492 193.21 367.492C199.575 367.492 206.643 365.363 213.05 362.532C223.383 357.076 229.563 352.819 235.721 345.999C234.213 327.709 250.271 303.715 273.975 303.715C284.619 303.715 293.113 307.951 293.815 315.763C295.221 326.386 286.024 327.791 283.193 327.791C280.361 327.791 275.381 327.089 275.381 324.278C274.678 321.426 281.767 322.831 281.064 316.466C280.341 312.209 276.104 310.803 271.847 310.803C256.967 310.803 248.473 331.346 250.581 344.097C251.304 349.781 254.135 355.443 259.819 355.443C264.055 355.443 270.441 349.037 272.57 339.84C273.975 333.475 279.659 329.217 284.619 329.217C286.727 329.217 288.132 329.92 288.855 332.751V335.603C288.153 338.435 286.024 346.929 286.747 349.057C286.747 350.483 287.45 352.591 290.261 352.591C292.162 352.591 299.271 348.871 306.319 343.105C308.737 330.912 311.547 316.28 311.547 315.061C312.25 310.101 314.379 305.141 324.299 305.141C326.427 305.141 327.833 305.843 328.535 308.675V311.527L325.725 324.278C334.921 312.229 348.396 303.735 356.89 303.735C360.445 303.735 363.276 305.843 363.276 309.398C363.276 311.527 363.276 315.061 361.85 318.615C359.019 326.407 355.464 338.455 353.335 349.078C353.335 351.909 354.059 354.741 357.613 354.741C361.168 354.741 371.77 350.483 380.264 339.158L380.409 339.075C380.367 337.67 380.264 336.306 380.264 334.901C380.264 326.407 380.987 319.318 382.413 314.358C383.819 308.695 390.907 303.735 395.165 303.735C397.293 303.735 399.401 305.161 399.401 307.269C399.401 307.993 399.401 309.398 398.699 310.101C395.867 319.318 393.739 327.812 393.739 336.327C393.739 341.287 394.441 348.355 395.847 352.612C395.847 353.315 396.57 354.038 397.293 354.038C398.699 354.038 408.619 344.841 415.687 332.793C409.321 328.535 405.767 321.447 405.767 312.953C405.767 298.073 414.984 290.281 423.499 290.281C430.587 290.281 436.25 295.241 436.25 305.161C436.25 311.527 434.121 318.595 430.587 325.001H432.695C434.943 325.074 437.181 324.67 439.262 323.815C441.342 322.96 443.218 321.674 444.765 320.041C445.422 318.974 446.388 318.131 447.534 317.623C454.457 308.84 464.687 302.33 476.674 302.33C486.594 302.33 495.77 306.567 496.493 314.358C497.899 325.001 488.681 327.13 485.85 327.13L485.809 327.089C482.957 327.089 478.017 326.365 478.017 323.534C478.017 320.703 484.403 322.129 483.68 315.763C482.977 311.506 478.72 310.08 474.463 310.08C460.285 310.08 451.109 328.494 453.217 343.374C453.92 349.057 456.751 355.423 462.414 355.423C466.671 355.423 473.057 349.057 475.889 339.84C477.294 334.177 482.977 329.217 487.937 329.217C490.066 329.217 491.451 329.92 492.174 332.751C492.174 334.177 492.174 337.009 489.343 346.226C485.829 352.591 485.809 356.146 486.511 358.977C487.214 364.64 490.045 368.897 492.897 371.026C493.6 371.729 494.303 373.134 494.303 373.134C494.303 374.56 493.6 375.986 491.471 375.986C490.769 375.986 490.066 375.986 489.343 375.263C478.72 371.026 474.463 363.937 473.037 356.849C468.8 361.809 463.84 364.64 458.157 364.64C448.96 364.64 439.763 356.146 438.317 345.503C437.905 340.973 438.433 336.407 439.867 332.09C435.671 334.777 431.145 336.285 426.991 336.285H423.478C414.24 349.76 404.32 358.977 397.231 363.214C394.823 364.493 392.163 365.227 389.44 365.363C388.035 365.363 385.906 364.64 385.203 363.214C383.24 360.073 381.979 355.113 381.215 349.429C371.274 360.321 357.551 366.066 351.186 366.066C344.097 366.066 339.861 361.809 339.158 354.699V346.929C341.266 331.346 346.949 322.129 346.949 319.297C346.93 318.923 346.774 318.57 346.511 318.303C346.248 318.036 345.897 317.875 345.523 317.851C340.563 317.851 324.278 334.88 321.426 346.226L319.297 355.423C317.892 361.809 311.506 366.066 307.269 366.066C305.141 366.066 303.715 365.343 303.012 362.511V359.68L303.963 354.865C294.973 361.271 285.983 365.363 281.746 365.363C275.381 365.363 271.826 361.809 271.123 356.849C266.866 362.511 261.927 365.363 255.541 365.363C248.266 365.363 241.157 360.403 237.726 353.108C232.683 358.791 226.917 364.537 220.118 368.897C210.198 375.283 198.873 380.243 185.398 380.243C173.37 380.243 162.727 373.857 157.064 368.195C148.549 360.403 143.61 348.355 142.887 337.009C138.65 302.289 159.895 257.649 192.487 237.809C200.299 233.572 208.09 230.72 215.881 230.72ZM417.795 298.734C415.645 298.734 414.24 302.289 414.24 305.823C414.24 311.485 417.071 317.871 420.626 321.426C422.028 317.564 422.741 313.486 422.734 309.377C422.734 302.289 419.923 298.734 417.795 298.734Z" fill="black"/>
</svg>
