<svg width="640" height="640" viewBox="0 0 640 640" fill="none" xmlns="http://www.w3.org/2000/svg">
<path d="M175.331 96C131.465 96 96 132.378 96 177.372V462.628C96 507.622 131.465 544 175.331 544H464.669C508.534 544 544 507.622 544 462.628V177.372C544 132.378 508.534 96 464.669 96H175.331ZM256.535 209.917C271.84 209.917 284.535 211.827 294.986 215.847C304.357 219.113 312.902 224.478 320 231.552C326.014 237.742 330.662 245.183 333.629 253.374C336.429 261.415 337.917 269.647 337.917 278.262C337.917 294.727 334.183 308.32 326.716 319.042C319.255 329.761 308.803 337.805 296.669 342.4C283.975 347.189 269.975 348.908 254.669 348.908C250.189 348.908 247.197 348.908 245.331 348.718C243.465 348.528 240.851 348.528 237.306 348.528V409.984C237.491 411.323 236.56 412.475 235.255 412.666H199.04C197.549 412.666 196.807 411.894 196.807 410.171V213.169C196.807 211.83 197.367 211.058 198.673 211.058C201.847 211.058 204.832 211.058 209.123 210.872C213.604 210.678 218.269 210.685 223.309 210.491C228.349 210.301 233.764 210.297 239.549 210.107C245.338 209.913 250.935 209.917 256.535 209.917ZM260.699 247.624C259.746 247.605 258.793 247.607 257.84 247.631C252.989 247.631 248.695 247.634 245.145 247.828C241.414 247.634 238.803 247.825 237.498 248.015V312.343C240.109 312.537 242.531 312.724 244.771 312.724H254.669C261.949 312.724 269.229 311.575 276.134 309.277C282.109 307.554 287.335 303.914 291.44 299.129C295.36 294.341 297.229 287.836 297.229 279.411C297.401 273.43 295.913 267.521 292.938 262.374C289.764 257.398 285.28 253.565 279.866 251.461C273.821 248.948 267.35 247.756 260.699 247.624ZM417.255 257.398C424.909 257.398 432.749 257.966 440.4 259.114C446 259.879 451.411 261.419 456.451 263.526C457.2 263.716 457.945 264.477 458.316 265.242C458.505 266.007 458.694 266.775 458.694 267.54V298.749C458.696 299.12 458.613 299.487 458.451 299.819C458.29 300.152 458.054 300.44 457.763 300.662C456.083 301.046 455.149 301.046 454.404 300.662C448.803 297.6 442.826 295.496 436.477 294.157C429.571 292.625 422.665 291.663 415.574 291.663C411.84 291.469 407.917 292.05 404.371 293.005C401.942 293.579 399.891 294.922 398.586 296.835C397.655 298.368 397.095 300.282 397.095 302.005C397.095 303.728 397.843 305.451 398.964 306.98C400.643 309.087 402.88 310.814 405.306 312.156C409.634 314.451 414.056 316.555 418.56 318.464C428.64 321.91 438.345 326.702 447.306 332.446C453.466 336.466 458.505 341.829 462.051 348.337C465.054 354.444 466.531 361.219 466.349 368.056C466.5 377.106 463.958 385.988 459.062 393.518C453.857 401.16 446.594 407.08 438.16 410.555C429.011 414.575 417.811 416.683 404.371 416.683C395.782 416.683 387.389 415.918 378.989 414.195C372.405 413.028 366.002 410.968 359.949 408.067C358.643 407.303 357.705 405.96 357.891 404.427V371.118C357.891 370.544 358.077 369.775 358.637 369.395C359.197 369.011 359.757 369.208 360.316 369.589C367.507 373.939 375.318 377.106 383.466 378.972C390.56 380.886 398.029 381.841 405.498 381.841C412.589 381.841 417.629 380.882 420.989 379.159C423.974 377.82 426.026 374.564 426.026 371.118C426.026 368.44 424.535 365.945 421.546 363.454C418.56 360.966 412.4 358.098 403.255 354.462C393.87 351.072 384.958 346.438 376.745 340.677C370.896 336.402 366.05 330.843 362.56 324.405C359.581 318.358 358.107 311.649 358.269 304.876C358.269 296.645 360.505 288.794 364.611 281.712C369.277 274.055 376.189 267.927 384.218 264.101C392.989 259.506 403.997 257.398 417.255 257.398Z" fill="black"/>
</svg>
