<svg width="640" height="640" viewBox="0 0 640 640" fill="none" xmlns="http://www.w3.org/2000/svg">
<path d="M464.655 96.0001H175.345C164.921 95.9859 154.598 98.0812 144.965 102.166C135.332 106.251 126.579 112.244 119.209 119.804C111.838 127.364 105.994 136.34 102.012 146.22C98.0291 156.1 95.9862 166.689 96.0001 177.38V462.62C95.9862 473.311 98.0291 483.9 102.012 493.78C105.994 503.66 111.838 512.636 119.209 520.196C126.579 527.756 135.332 533.749 144.965 537.834C154.598 541.919 164.921 544.014 175.345 544H464.655C475.079 544.014 485.402 541.919 495.035 537.834C504.668 533.749 513.421 527.756 520.791 520.196C528.162 512.636 534.006 503.66 537.988 493.78C541.971 483.9 544.014 473.311 544 462.62V177.38C544.014 166.689 541.971 156.1 537.988 146.22C534.006 136.34 528.162 127.364 520.791 119.804C513.421 112.244 504.668 106.251 495.035 102.166C485.402 98.0812 475.079 95.9859 464.655 96.0001ZM369.84 411.897H330.815C330.157 411.949 329.503 411.766 328.961 411.38C328.419 410.995 328.023 410.429 327.84 409.779L312.545 364.046H243L229 409.026C228.847 409.84 228.404 410.567 227.757 411.065C227.11 411.562 226.305 411.795 225.5 411.718H190.5C188.47 411.718 187.91 410.569 188.47 408.128L248.32 230.795C248.88 228.856 249.44 226.774 250.175 224.477C250.94 220.372 251.315 216.2 251.295 212.021C251.242 211.538 251.367 211.053 251.646 210.661C251.924 210.269 252.336 209.998 252.8 209.903H301.135C302.64 209.903 303.375 210.477 303.585 211.446L371.695 408.631C372.255 410.749 371.695 411.718 369.84 411.718V411.897ZM434.24 409.744C434.24 411.861 433.505 412.795 431.825 412.795H395.215C394.824 412.825 394.432 412.766 394.067 412.621C393.701 412.475 393.372 412.248 393.104 411.956C392.835 411.663 392.634 411.312 392.515 410.93C392.396 410.547 392.362 410.142 392.415 409.744V262.169C392.415 260.267 393.185 259.513 394.865 259.513H432C433.68 259.513 434.415 260.446 434.415 262.169L434.24 409.744ZM430.32 236.718C428.119 239.011 425.466 240.796 422.539 241.954C419.612 243.111 416.477 243.615 413.345 243.431C410.278 243.5 407.228 242.942 404.374 241.79C401.52 240.637 398.918 238.913 396.72 236.718C392.424 231.93 390.147 225.595 390.385 219.092C390.254 215.938 390.776 212.791 391.916 209.858C393.056 206.925 394.789 204.274 397 202.077C401.473 197.719 407.421 195.312 413.59 195.364C416.726 195.198 419.86 195.71 422.791 196.866C425.721 198.022 428.382 199.798 430.6 202.077C434.725 206.716 436.934 212.816 436.76 219.092C436.885 222.322 436.38 225.545 435.274 228.572C434.168 231.598 432.484 234.368 430.32 236.718ZM301.345 325.169H253.92C256.72 317.128 259.52 308.118 262.145 298.354C264.77 288.59 267.92 279.221 270.72 270.031C273.27 261.923 275.385 253.678 277.055 245.333H277.44C278.735 249.928 280.065 254.918 281.535 260.267C283.005 265.615 284.72 271.359 286.575 277.318C288.43 283.277 290.075 288.985 292 294.908C293.925 300.831 295.5 306.215 297.04 311.385C298.58 316.554 300.225 321.149 301.345 325.169Z" fill="black"/>
</svg>
