<svg width="640" height="640" viewBox="0 0 640 640" fill="none" xmlns="http://www.w3.org/2000/svg">
<path d="M365.5 265.4C365.5 243.3 349.9 231.1 322.5 231.1H272.1V302.3H314.6C347.4 302.2 365.5 289 365.5 265.4ZM549 252.6C539.5 221.7 538.1 183.8 539.2 154.5C540.3 124 516.5 96 484.5 96H155.7C123.6 96 99.9 124.1 101 154.5C102 183.8 100.7 221.7 91.2 252.6C81.6 283.6 65.5 303.2 39 305.7V334.2C65.4 336.7 81.6 356.3 91.2 387.3C100.7 418.2 102.1 456.1 101 485.4C99.9 515.9 123.7 543.9 155.7 543.9H484.4C516.5 543.9 540.2 515.8 539.1 485.4C538.1 456.1 539.4 418.2 548.9 387.3C558.5 356.3 574.6 336.7 601 334.2V305.7C574.7 303.2 558.5 283.6 549 252.6ZM332.2 439.1H234.3V200.8H331.7C375 200.8 403.4 224.2 403.4 260.2C403.4 285.5 384.3 308.1 359.9 312V313.3C393.1 316.9 415.4 339.9 415.4 371.6C415.4 413.7 384.1 439.1 332.2 439.1ZM322.2 330.4H272.1V408.8H324.4C358.6 408.8 376.7 395.1 376.7 369.3C376.7 343.6 358.1 330.4 322.2 330.4Z" fill="black"/>
</svg>
