<svg width="640" height="640" viewBox="0 0 640 640" fill="none" xmlns="http://www.w3.org/2000/svg">
<path fill-rule="evenodd" clip-rule="evenodd" d="M506 226.034V479.438C506 493.587 500.386 507.156 490.393 517.161C480.4 527.166 466.847 532.787 452.714 532.787H426.071V506.112H452.714C459.78 506.112 466.557 503.302 471.554 498.3C476.55 493.297 479.357 486.513 479.357 479.438V226.034H426.071C415.472 226.034 405.307 221.818 397.812 214.315C390.318 206.811 386.107 196.634 386.107 186.022V132.674H239.571C232.505 132.674 225.729 135.484 220.732 140.487C215.736 145.489 212.929 152.274 212.929 159.348V399.416H186.286V159.348C186.286 145.199 191.9 131.63 201.893 121.625C211.886 111.621 225.439 106 239.571 106H386.107L506 226.034ZM223.506 501.871C223.658 506.074 224.688 510.199 226.528 513.979C228.368 517.76 230.978 521.114 234.19 523.824C237.653 526.705 241.898 528.946 246.925 530.546C251.969 532.164 257.875 532.973 264.642 532.973C273.648 532.973 281.276 531.569 287.529 528.759C293.816 525.949 298.603 522.037 301.889 517.022C305.211 511.972 306.871 506.139 306.871 499.524C306.871 493.549 305.681 488.57 303.301 484.586C300.864 480.589 297.418 477.305 293.31 475.064C288.596 472.443 283.511 470.555 278.23 469.462L261.685 465.621C257.793 464.877 254.116 463.273 250.921 460.926C249.706 459.988 248.726 458.778 248.06 457.393C247.394 456.009 247.06 454.488 247.085 452.951C247.085 448.79 248.728 445.375 252.014 442.708C255.353 440.005 259.9 438.654 265.655 438.654C269.456 438.654 272.742 439.258 275.513 440.467C278.077 441.484 280.335 443.147 282.067 445.295C283.707 447.276 284.808 449.646 285.264 452.177H305.246C304.902 446.747 303.057 441.52 299.917 437.08C296.56 432.283 291.952 428.5 286.596 426.143C280.057 423.259 272.957 421.873 265.815 422.089C258.017 422.089 251.126 423.423 245.14 426.09C239.154 428.74 234.474 432.483 231.099 437.32C227.724 442.174 226.037 447.856 226.037 454.365C226.037 459.735 227.12 464.394 229.287 468.342C231.49 472.307 234.616 475.571 238.666 478.131C242.715 480.674 247.502 482.568 253.026 483.813L269.491 487.654C274.998 488.952 279.109 490.668 281.827 492.802C283.15 493.82 284.208 495.141 284.913 496.655C285.618 498.168 285.948 499.829 285.877 501.498C285.937 504.248 285.146 506.95 283.612 509.233C281.895 511.574 279.534 513.363 276.818 514.381C273.852 515.626 270.184 516.249 265.815 516.249C262.706 516.249 259.864 515.893 257.289 515.182C254.927 514.546 252.692 513.509 250.681 512.114C248.91 510.962 247.393 509.459 246.225 507.697C245.056 505.936 244.261 503.953 243.888 501.871H223.506ZM154.474 471.249C154.474 464.616 155.38 458.988 157.192 454.365C158.775 450.105 161.573 446.404 165.238 443.722C168.965 441.196 173.395 439.917 177.893 440.067C181.89 440.067 185.424 440.93 188.497 442.655C191.5 444.261 194.006 446.659 195.744 449.59C197.601 452.675 198.697 456.159 198.941 459.753H219.323V457.832C219.146 452.919 217.951 448.096 215.814 443.669C213.677 439.243 210.644 435.309 206.907 432.118C203.096 428.847 198.665 426.379 193.879 424.863C188.685 423.082 183.223 422.206 177.733 422.276C168.249 422.276 160.158 424.258 153.462 428.224C146.801 432.172 141.721 437.791 138.222 445.082C134.758 452.373 133.018 461.078 133 471.196V484.48C133 494.58 134.714 503.258 138.142 510.514C141.641 517.751 146.721 523.317 153.382 527.212C160.042 531.071 168.16 533 177.733 533C185.531 533 192.502 531.542 198.648 528.625C204.794 525.709 209.678 521.672 213.302 516.515C216.977 511.219 219.066 504.981 219.323 498.537V496.51H198.968C198.715 499.944 197.637 503.266 195.824 506.192C194.048 509.025 191.545 511.328 188.577 512.861C185.242 514.448 181.585 515.242 177.893 515.182C173.393 515.301 168.959 514.076 165.158 511.661C161.506 509.064 158.728 505.417 157.192 501.204C155.244 495.85 154.322 490.176 154.474 484.48V471.249ZM313.639 513.848C311.886 510.086 310.882 506.018 310.681 501.871H331.036C331.409 503.953 332.205 505.936 333.373 507.697C334.542 509.459 336.059 510.962 337.83 512.114C339.713 513.412 341.933 514.426 344.491 515.155C347.013 515.884 349.846 516.249 352.99 516.249C357.342 516.249 361.01 515.626 363.994 514.381C366.71 513.363 369.071 511.574 370.788 509.233C372.321 506.95 373.112 504.248 373.052 501.498C373.121 499.827 372.786 498.164 372.076 496.651C371.367 495.137 370.303 493.817 368.976 492.802C366.276 490.668 362.164 488.952 356.64 487.654L340.175 483.84C335.097 482.774 330.239 480.843 325.814 478.131C321.908 475.728 318.687 472.356 316.463 468.342C314.231 464.026 313.105 459.223 313.186 454.365C313.186 447.856 314.873 442.174 318.248 437.32C321.623 432.483 326.303 428.731 332.289 426.063C338.274 423.396 345.175 422.071 352.99 422.089C361.089 422.089 368.008 423.44 373.745 426.143C379.535 428.864 383.976 432.51 387.066 437.08C390.263 441.614 392.04 446.647 392.395 452.177H372.413C371.957 449.646 370.855 447.276 369.216 445.295C367.483 443.147 365.226 441.484 362.661 440.467C359.54 439.174 356.18 438.556 352.804 438.654C347.049 438.654 342.502 440.005 339.162 442.708C337.598 443.908 336.338 445.462 335.486 447.242C334.634 449.022 334.214 450.978 334.26 452.951C334.26 456.152 335.53 458.819 338.07 460.953C341.267 463.29 344.944 464.885 348.834 465.621L365.379 469.435C371.169 470.769 376.196 472.645 380.459 475.064C384.722 477.482 388.052 480.665 390.45 484.613C392.848 488.561 394.047 493.54 394.047 499.551C394.047 506.13 392.377 511.963 389.038 517.049C385.51 522.285 380.513 526.36 374.677 528.759C368.443 531.569 360.823 532.973 351.818 532.973C345.051 532.973 339.145 532.173 334.1 530.573C329.459 529.181 325.134 526.898 321.365 523.851C318.094 521.118 315.457 517.705 313.639 513.848Z" fill="black"/>
</svg>
