<svg width="640" height="640" viewBox="0 0 640 640" fill="none" xmlns="http://www.w3.org/2000/svg">
<path d="M482.2 241.199C476.8 239.399 471.4 237.699 466 236.099C466.9 232.399 467.7 228.699 468.5 224.999C480.8 165.399 472.7 117.499 445.4 101.699C419.1 86.5992 376.2 102.299 332.8 140.099C328.5 143.799 324.3 147.699 320.3 151.599C317.6 148.999 314.8 146.399 312 143.899C266.5 103.499 220.9 86.4992 193.6 102.399C167.4 117.599 159.6 162.699 170.6 219.099C171.7 224.699 172.9 230.199 174.3 235.799C167.9 237.599 161.6 239.599 155.7 241.699C102.3 260.199 64 289.399 64 319.599C64 350.799 104.8 382.099 160.3 401.099C164.8 402.599 169.3 404.099 173.9 405.399C172.4 411.399 171.1 417.299 169.9 423.399C159.4 478.899 167.6 522.899 193.8 537.999C220.8 553.599 266.2 537.599 310.4 498.899C313.9 495.799 317.4 492.599 320.9 489.199C325.3 493.499 329.9 497.599 334.5 501.599C377.3 538.399 419.6 553.299 445.7 538.199C472.7 522.599 481.5 475.299 470.1 417.699C469.2 413.299 468.2 408.799 467.1 404.199C470.3 403.299 473.4 402.299 476.5 401.299C534.2 382.199 576 351.299 576 319.599C576 289.299 536.6 259.899 482.2 241.199ZM346.9 156.299C384.1 123.899 418.8 111.199 434.6 120.299C451.5 129.999 458 169.199 447.4 220.699C446.7 224.099 446 227.399 445.1 230.699C422.9 225.699 400.4 222.099 377.8 220.099C364.8 201.499 350.6 183.699 335.2 166.999C339.1 163.299 342.9 159.799 346.9 156.299ZM231.2 371.499C236.3 380.199 241.5 388.899 247 397.399C231.4 395.699 215.9 393.199 200.6 389.899C205 375.499 210.5 360.599 216.9 345.399C221.5 354.199 226.2 362.899 231.2 371.499ZM200.9 251.199C215.3 247.999 230.6 245.399 246.5 243.399C241.2 251.699 236 260.199 231.1 268.799C226.2 277.299 221.4 285.999 216.9 294.799C210.6 279.899 205.3 265.299 200.9 251.199ZM228.3 320.099C234.9 306.299 242.1 292.799 249.7 279.499C257.3 266.199 265.5 253.299 274.1 240.599C289.1 239.499 304.4 238.899 320 238.899C335.6 238.899 351 239.499 365.9 240.599C374.4 253.199 382.5 266.099 390.2 279.299C397.9 292.499 405.1 305.999 411.9 319.699C405.2 333.499 398 347.099 390.3 360.499C382.7 373.799 374.6 386.699 366.1 399.499C351.2 400.599 335.7 401.099 320 401.099C304.3 401.099 289.1 400.599 274.4 399.699C265.7 386.999 257.5 373.999 249.8 360.699C242.1 347.399 235 333.899 228.3 320.099ZM408.9 371.299C414 362.499 418.8 353.599 423.5 344.599C429.9 359.099 435.5 373.799 440.4 388.899C424.9 392.399 409.2 395.099 393.4 396.899C398.8 388.499 403.9 379.899 408.9 371.299ZM423.3 294.799C418.6 285.999 413.8 277.199 408.8 268.599C403.9 260.099 398.8 251.699 393.5 243.399C409.6 245.399 425 248.099 439.4 251.399C434.8 266.199 429.4 280.599 423.3 294.799ZM320.2 182.299C330.7 193.699 340.6 205.699 349.8 218.099C330 217.199 310.1 217.199 290.3 218.099C300.1 205.199 310.2 193.199 320.2 182.299ZM204.2 120.999C221 111.199 258.3 125.199 297.6 159.999C300.1 162.199 302.6 164.599 305.2 166.999C289.7 183.699 275.4 201.499 262.3 220.099C239.7 222.099 217.3 225.599 195.1 230.499C193.8 225.399 192.7 220.199 191.6 214.999C182.2 166.599 188.4 130.099 204.2 120.999ZM179.7 384.599C175.5 383.399 171.4 382.099 167.3 380.699C146 373.999 121.8 363.399 104.3 349.499C94.2 342.499 87.4 331.699 85.5 319.599C85.5 301.299 117.1 277.899 162.7 261.999C168.4 259.999 174.2 258.199 180 256.499C186.8 278.199 195 299.499 204.5 320.099C194.9 340.999 186.6 362.599 179.7 384.599ZM296.3 482.599C279.8 497.699 260.7 509.699 239.9 517.899C228.8 523.199 216 523.699 204.6 519.199C188.7 509.999 182.1 474.699 191.1 427.199C192.2 421.599 193.4 415.999 194.8 410.499C217.2 415.299 239.8 418.599 262.7 420.299C275.9 438.999 290.4 456.899 305.9 473.699C302.7 476.799 299.5 479.799 296.3 482.599ZM320.8 458.299C310.6 447.299 300.4 435.099 290.5 421.999C300.1 422.399 310 422.599 320 422.599C330.3 422.599 340.4 422.399 350.4 421.899C341.2 434.599 331.3 446.699 320.8 458.299ZM451.5 488.299C450.6 500.499 444.6 511.899 435 519.599C419.1 528.799 385.2 516.799 348.6 485.399C344.4 481.799 340.2 477.899 335.9 473.899C351.2 456.999 365.3 439.099 378.1 420.299C401 418.399 423.8 414.899 446.3 409.799C447.3 413.899 448.2 417.999 449 421.999C453.9 443.599 454.7 466.099 451.5 488.299ZM469.7 380.799C466.9 381.699 464.1 382.599 461.2 383.399C454.2 361.599 445.6 340.299 435.7 319.599C445.3 299.199 453.4 278.199 460.2 256.699C465.4 258.199 470.4 259.799 475.2 261.399C521.8 277.399 554.5 301.199 554.5 319.399C554.5 338.999 519.6 364.299 469.7 380.799ZM320 365.799C345.3 365.799 365.8 345.299 365.8 319.999C365.8 294.699 345.3 274.199 320 274.199C294.7 274.199 274.2 294.699 274.2 319.999C274.2 345.299 294.7 365.799 320 365.799Z" fill="black"/>
</svg>
