<svg width="640" height="640" viewBox="0 0 640 640" fill="none" xmlns="http://www.w3.org/2000/svg">
<path d="M393.4 195.702C393.4 208.702 395.5 228.402 364.7 239.502C355.2 242.902 348.7 249.202 348.7 249.202C348.7 218.202 353.4 207.002 366.1 200.302C375.9 195.202 393.3 195.702 393.3 195.702H393.4ZM277.6 231.202L243.4 363.902L214.9 255.302C207.2 223.302 194.1 206.802 166.5 206.802C139.1 206.802 125.8 223.002 118.1 255.302L89.5 363.902L55.3 231.202C49.7 204.502 23.9 193.002 0 196.002L65.6 443.902C65.6 443.902 87.2 445.502 98.1 439.902C112.3 432.702 119.1 427.101 127.7 393.301C135.4 363.201 156.8 274.902 158.8 268.602C163.6 253.702 169.9 254.802 174.2 268.602C176.2 274.902 197.7 363.201 205.3 393.301C213.9 427.001 220.7 432.602 234.9 439.902C245.7 445.402 267.4 443.902 267.4 443.902L332.9 196.002C308.5 192.902 283.1 204.902 277.6 231.302V231.202ZM393.4 236.402C393.4 236.402 389.3 242.702 379.9 248.002C373.9 251.402 368.1 253.602 361.9 256.602C346.8 263.902 348.7 270.502 348.7 291.802V443.902C348.7 443.902 365.3 446.002 376.1 440.502C390 433.402 393.2 426.502 393.4 395.702V245.402V236.402ZM556.8 320.502L640 196.802C640 196.802 604.9 190.802 587.5 206.602C574.2 218.702 563.1 236.202 533.3 279.102C532.8 279.802 527 289.602 520.2 279.102C490.9 236.902 479.4 218.802 466 206.602C448.6 190.802 413.5 196.802 413.5 196.802L496.7 320.502L413.7 443.902C413.7 443.902 450.3 448.502 467.7 432.702C479.2 422.202 485.3 412.302 520.2 362.002C527 351.502 532.8 361.202 533.3 362.002C562.7 404.402 572.5 420.102 586.4 432.702C603.8 448.502 639.7 443.902 639.7 443.902L556.7 320.502H556.8Z" fill="black"/>
</svg>
